<svg width="18" height="18" viewBox="0 0 18 18" fill="none" xmlns="http://www.w3.org/2000/svg">
<path fill-rule="evenodd" clip-rule="evenodd" d="M9.00001 1.99995C7.65832 2.00029 6.34499 2.38622 5.2164 3.11177C4.08781 3.83731 3.19151 4.87192 2.63422 6.0924C2.07693 7.31287 1.88213 8.6678 2.07301 9.99584C2.26389 11.3239 2.83242 12.5691 3.71089 13.5832C4.58936 14.5973 5.74077 15.3376 7.02802 15.7159C8.31527 16.0942 9.68413 16.0946 10.9716 15.7171C12.2591 15.3395 13.4109 14.5999 14.29 13.5863C15.1691 12.5728 15.7383 11.3279 15.93 9.99995H10C9.73479 9.99995 9.48044 9.89459 9.2929 9.70706C9.10537 9.51952 9.00001 9.26517 9.00001 8.99995C9.00001 8.73473 9.10537 8.48038 9.2929 8.29284C9.48044 8.10531 9.73479 7.99995 10 7.99995H17C17.2652 7.99995 17.5196 8.10531 17.7071 8.29284C17.8947 8.48038 18 8.73473 18 8.99995C17.9998 11.0414 17.3056 13.022 16.0313 14.6169C14.7571 16.2118 12.9785 17.326 10.9875 17.7768C8.99645 18.2276 6.91133 17.9882 5.07436 17.0977C3.23738 16.2073 1.7577 14.7188 0.878171 12.8766C-0.00135547 11.0344 -0.228465 8.94791 0.234122 6.95961C0.696708 4.9713 1.8215 3.19933 3.42389 1.93454C5.02627 0.669753 7.01104 -0.012709 9.05241 -0.000823915C11.0938 0.0110612 13.0705 0.716587 14.658 1.99995C14.8642 2.16677 14.9957 2.40867 15.0236 2.67244C15.0514 2.93621 14.9733 3.20024 14.8065 3.40645C14.6397 3.61266 14.3978 3.74415 14.134 3.772C13.8702 3.79984 13.6062 3.72177 13.4 3.55495C12.1557 2.54622 10.6018 1.99706 9.00001 1.99995Z" fill="white"/>
</svg>
