<svg width="21" height="24" viewBox="0 0 21 24" fill="none" xmlns="http://www.w3.org/2000/svg">
<path fill-rule="evenodd" clip-rule="evenodd" d="M17.5432 0.799805H3.25753C1.67958 0.799805 0.400391 2.07899 0.400391 3.65695V7.94266C0.400391 9.52062 1.67958 10.7998 3.25753 10.7998H17.5432C19.1212 10.7998 20.4004 9.52062 20.4004 7.94266V3.65695C20.4004 2.07899 19.1212 0.799805 17.5432 0.799805ZM1.82902 3.65696C1.82902 2.86799 2.46861 2.22839 3.25759 2.22839H17.5433C18.3323 2.22839 18.9719 2.86799 18.9719 3.65696V7.94268C18.9719 8.73166 18.3323 9.37125 17.5433 9.37125H3.25759C2.46861 9.37125 1.82902 8.73166 1.82902 7.94268V3.65696ZM3.25753 13.6569H17.5432C19.1212 13.6569 20.4004 14.9361 20.4004 16.5141V20.7998C20.4004 22.3778 19.1212 23.6569 17.5432 23.6569H3.25753C1.67958 23.6569 0.400391 22.3778 0.400391 20.7998V16.5141C0.400391 14.9361 1.67958 13.6569 3.25753 13.6569ZM1.82902 16.514C1.82902 15.725 2.46861 15.0854 3.25759 15.0854H17.5433C18.3323 15.0854 18.9719 15.725 18.9719 16.514V20.7997C18.9719 21.5887 18.3323 22.2283 17.5433 22.2283H3.25759C2.46861 22.2283 1.82902 21.5887 1.82902 20.7997V16.514Z" fill="#FFFDF5"/>
</svg>
