<svg width="22" height="16" viewBox="0 0 22 16" fill="none" xmlns="http://www.w3.org/2000/svg">
<path fill-rule="evenodd" clip-rule="evenodd" d="M5.30105 11.577C3.77805 10.268 2.69105 8.773 2.18005 8C2.69005 7.227 3.77805 5.732 5.30105 4.423C6.87405 3.072 8.81605 2 11.0001 2C13.1841 2 15.1261 3.072 16.6991 4.423C18.2221 5.732 19.3091 7.227 19.8201 8C19.3101 8.773 18.2221 10.268 16.6991 11.577C15.1261 12.928 13.1841 14 11.0001 14C8.81605 14 6.87405 12.928 5.30105 11.577ZM11.0001 0C8.14805 0 5.75705 1.395 3.99805 2.906C2.23305 4.423 1.00805 6.138 0.464053 6.97C0.263086 7.27593 0.156006 7.63397 0.156006 8C0.156006 8.36603 0.263086 8.72407 0.464053 9.03C1.00805 9.862 2.23305 11.577 3.99805 13.094C5.75805 14.605 8.14805 16 11.0001 16C13.8521 16 16.2431 14.605 18.0021 13.094C19.7671 11.577 20.9921 9.862 21.5361 9.03C21.9471 8.402 21.9471 7.599 21.5361 6.97C20.9921 6.138 19.7671 4.423 18.0021 2.906C16.2421 1.395 13.8521 0 11.0001 0ZM9.00005 8C9.00005 7.46957 9.21077 6.96086 9.58584 6.58579C9.96091 6.21071 10.4696 6 11.0001 6C11.5305 6 12.0392 6.21071 12.4143 6.58579C12.7893 6.96086 13.0001 7.46957 13.0001 8C13.0001 8.53043 12.7893 9.03914 12.4143 9.41421C12.0392 9.78929 11.5305 10 11.0001 10C10.4696 10 9.96091 9.78929 9.58584 9.41421C9.21077 9.03914 9.00005 8.53043 9.00005 8ZM11.0001 4C9.93919 4 8.92177 4.42143 8.17163 5.17157C7.42148 5.92172 7.00005 6.93913 7.00005 8C7.00005 9.06087 7.42148 10.0783 8.17163 10.8284C8.92177 11.5786 9.93919 12 11.0001 12C12.0609 12 13.0783 11.5786 13.8285 10.8284C14.5786 10.0783 15.0001 9.06087 15.0001 8C15.0001 6.93913 14.5786 5.92172 13.8285 5.17157C13.0783 4.42143 12.0609 4 11.0001 4Z" fill="#FB5F5F"/>
</svg>
