<svg width="21" height="19" viewBox="0 0 21 19" fill="none" xmlns="http://www.w3.org/2000/svg">
<path fill-rule="evenodd" clip-rule="evenodd" d="M0.400391 0.828788C0.400391 0.434299 0.720187 0.114502 1.11468 0.114502H19.6861C20.0806 0.114502 20.4004 0.434299 20.4004 0.828788C20.4004 1.22328 20.0806 1.54307 19.6861 1.54307H1.11468C0.720187 1.54307 0.400391 1.22328 0.400391 0.828788ZM17.5432 4.40019H3.25753C1.67958 4.40019 0.400391 5.67937 0.400391 7.25733V11.543C0.400391 13.121 1.67958 14.4002 3.25753 14.4002H17.5432C19.1212 14.4002 20.4004 13.121 20.4004 11.543V7.25733C20.4004 5.67937 19.1212 4.40019 17.5432 4.40019ZM1.8291 7.25747C1.8291 6.46849 2.46869 5.8289 3.25767 5.8289H17.5434C18.3324 5.8289 18.972 6.46849 18.972 7.25747V11.5432C18.972 12.3322 18.3324 12.9718 17.5434 12.9718H3.25767C2.46869 12.9718 1.8291 12.3322 1.8291 11.5432V7.25747ZM1.11468 17.2574C0.720187 17.2574 0.400391 17.5772 0.400391 17.9717C0.400391 18.3662 0.720187 18.686 1.11468 18.686H19.6861C20.0806 18.686 20.4004 18.3662 20.4004 17.9717C20.4004 17.5772 20.0806 17.2574 19.6861 17.2574H1.11468Z" fill="#515151"/>
</svg>
